<svg version="1.1" id="Layer_1" xmlns="http://www.w3.org/2000/svg" xmlns:xlink="http://www.w3.org/1999/xlink" x="0px" y="0px"
	 viewBox="0 0 48 48" enable-background="new 0 0 48 48" xml:space="preserve">
<g>
	<path fill="#555555" d="M8,13.5v5c0,1.4,1.1,2.5,2.5,2.5c1.4,0,2.5-1.1,2.5-2.5v-5c0-1.4-1.1-2.5-2.5-2.5C9.1,11,8,12.1,8,13.5z
		 M17,13.5v5c0,1.4,1.1,2.5,2.5,2.5c1.4,0,2.5-1.1,2.5-2.5v-5c0-1.4-1.1-2.5-2.5-2.5C18.1,11,17,12.1,17,13.5z M26,13.5v5
		c0,1.4,1.1,2.5,2.5,2.5c1.4,0,2.5-1.1,2.5-2.5v-5c0-1.4-1.1-2.5-2.5-2.5C27.1,11,26,12.1,26,13.5z M35,13.5v5
		c0,1.4,1.1,2.5,2.5,2.5c1.4,0,2.5-1.1,2.5-2.5v-5c0-1.4-1.1-2.5-2.5-2.5C36.1,11,35,12.1,35,13.5z M0,44c0,2.2,1.8,4,4,4h40
		c2.2,0,4-1.8,4-4V4c0-2.2-1.8-4-4-4H4C1.8,0,0,1.8,0,4L0,44L0,44z M7.2,8h33.6C42,8,43,9,43,10.2v15.6c0,1.2-1,2.2-2.2,2.2H38v3.8
		c0,1.2-1,2.2-2.2,2.2H30v3.8c0,1.2-1,2.2-2.2,2.2h-7.6C19,40,18,39,18,37.8V34h-5.8C11,34,10,33,10,31.8V28H7.2C6,28,5,27,5,25.8
		V10.2C5,9,6,8,7.2,8z"/>
</g>
</svg>
